<svg enable-background="new 0 0 128 38" viewBox="0 0 128 38" xmlns="http://www.w3.org/2000/svg"><g fill="#45196f"><path d="m15.6 15h7.6v7.6h-7.6z"/><path d="m11.2 28.4h.1.1c.2 0 .3 0 .5-.1.6-.1 1.2-.2 1.7-.4.5-.1.9-.3 1.3-.5.3-.1.5-.3.7-.4v-2.2c-.2.2-.5.4-.9.7s-.8.5-1.2.7-.9.4-1.5.6c-.2 0-.3.1-.5.1h-.1-.1c-.3 0-.6.1-.9.1-.2 0-.4 0-.5 0h-.1-.1c-.7-.1-1.4-.2-2-.4-.9-.3-1.6-.8-2.3-1.5-.6-.7-1.1-1.5-1.5-2.6-.4-1-.5-2.3-.5-3.7s.2-2.7.5-3.7c.4-1 .9-1.9 1.5-2.6s1.4-1.2 2.3-1.5c.6-.2 1.3-.4 2-.5h.1.1.6c.3 0 .6 0 .9.1h.1.1c.2 0 .3.1.5.1.5.2 1 .4 1.4.6s.8.5 1.1.7l.7.7.4.5v-3.2c-.8-.3-1-.5-2-.7-.8-.2-1.5-.3-2.3-.3h-.1-.1c-.3 0-.6 0-.9 0-.2 0-.4 0-.5 0h-.1-.1c-1.3 0-2.5.2-3.5.6-1.3.4-2.3 1.1-3.2 1.9s-1.6 1.9-2.1 3.1c-.5 1.2-.8 2.6-.8 4.1s.3 2.9.8 4.1 1.2 2.2 2.1 3.1c.9.8 2 1.5 3.2 1.9 1.1.4 2.2.5 3.4.6h.1.1.3z"/><path d="m27.5 26.7h.7.7c-.3-2.6-1.6-5.6-4.9-7.5v1.9c2.1 1.5 3.3 3.5 3.5 5.6z"/><path d="m9.7 26.7h.5c.3 0 .6 0 1-.1.2-1.4.9-3.9 3.4-5.6v-1.9c-1.6.9-4.5 3.5-4.9 7.6z"/><path d="m27.5 28.7c-.6 3.9-4.1 7.1-8.1 7.1-4.2 0-7.7-3.2-8.2-7.1-.4 0-.8.1-1.2.1-.1 0-.2 0-.3 0 .5 5 4.6 8.7 9.7 8.7 5 0 9.1-3.8 9.6-8.7-.3 0-.5 0-.8 0-.2-.1-.5-.1-.7-.1z"/><path d="m27.3 9.9c0-.3 0-.5 0-.7-2.6.3-5.6 1.6-7.5 4.9h1.9c1.5-1.9 3.5-3.1 5.6-3.4 0-.4 0-.7 0-.8z"/><path d="m29.3 9.2v.8.7c3.9.6 7.1 4.1 7.1 8.1 0 4.1-3.1 7.7-7.1 8.2h-.1-.1c-.3 0-.5 0-.8 0-.1 0-.4 0-.7 0h-.1-.1c-1.4-.2-4-.9-5.7-3.4h-1.9c.8 1.6 3.4 4.5 7.5 4.9h.1.1.7.8.1.1c5-.5 8.7-4.6 8.7-9.6.1-5.1-3.7-9.2-8.6-9.7z"/><path d="m14.6 16.5c-2-1.5-3.2-3.5-3.4-5.7-.3 0-.6-.1-.9-.1-.2 0-.4 0-.5 0 .2 2.6 1.6 5.7 4.9 7.6v-1.8z"/><path d="m11.2 8.7c.6-3.8 4.1-6.9 8.1-6.9 4.1 0 7.7 3.1 8.2 7.1v.1.1.8.7.1.1c-.2 1.4-.9 4-3.4 5.7v1.9c1.6-.8 4.5-3.4 4.9-7.5v-.1-.1c0-.2 0-.4 0-.7s0-.5 0-.8v-.1-.1c-.5-5-4.6-8.7-9.7-8.7-4.9 0-9 3.7-9.6 8.5h.5c.4-.1.7-.1 1-.1z"/><path d="m48.3 37.4h1.2v-2h1.8v-1.1h-1.8v-1h2v-1.1h-3.2z"/><path d="m53 32.2h1.2v5.2h-1.2z"/><path d="m59.5 35.1-3.2-3h-.1v5.3h1.1v-2.8l3.3 3h.1v-5.4h-1.2z"/><path d="m64.5 32.1-2.6 5.3h1.2l.3-.8h2.1l.3.8h1.3zm-.7 3.7.7-1.6.7 1.6z"/><path d="m71.7 35.1-3.2-3h-.1v5.3h1.1v-2.8l3.3 3h.1v-5.4h-1.2z"/><path d="m75.7 34.8c0-.9.6-1.6 1.5-1.6.5 0 1 .2 1.4.7l.1-1.3c-.5-.3-1-.5-1.6-.5-.7 0-1.4.3-1.9.8s-.8 1.2-.8 2c0 .9.4 1.7 1 2.2.5.4 1 .6 1.6.6s1.1-.2 1.5-.5l.1-1.4c-.5.4-1 .7-1.6.7-.7-.1-1.3-.8-1.3-1.7z"/><path d="m80.4 32.2h1.2v5.2h-1.2z"/><path d="m85.5 32.1-2.6 5.3h1.2l.3-.8h2.1l.3.8h1.3zm-.7 3.7.7-1.6.7 1.6z"/><path d="m90.6 32.2h-1.2v5.2h3.2v-1.1h-2z"/><path d="m98.8 35.6h1v.8c-.2.1-.5.1-.7.1-.9 0-1.6-.7-1.6-1.7 0-.9.7-1.6 1.6-1.6.5 0 1 .2 1.5.7l.1-1.3c-.5-.3-1.1-.5-1.7-.5-1.6 0-2.8 1.2-2.8 2.8s1.2 2.7 2.7 2.7c.6 0 1.3-.2 2-.5v-2.5h-2.2v1z"/><path d="m106.4 33.7c0-.4-.2-.9-.6-1.2s-1-.4-1.6-.4h-1.3v5.2h1.2v-2h.2l1.4 2h1.4l-1.6-2.2c.5-.2.9-.7.9-1.4zm-2.1.9h-.3v-1.4h.2c.7 0 1 .2 1 .7 0 .4-.3.7-.9.7z"/><path d="m110.4 32.1c-.7 0-1.4.3-1.9.8s-.8 1.2-.8 2 .3 1.4.8 2c.5.5 1.2.8 1.9.8.8 0 1.6-.4 2.1-1.1.4-.5.5-1.1.5-1.7 0-.8-.3-1.5-.8-2-.4-.6-1.1-.8-1.8-.8zm0 4.3c-.8 0-1.4-.7-1.4-1.6s.6-1.6 1.4-1.6 1.4.7 1.4 1.6-.6 1.6-1.4 1.6z"/><path d="m117.9 35.2c0 .8-.4 1.2-1 1.2-.7 0-1-.5-1-1.4v-2.8h-1.2v3c0 1.5.8 2.4 2.2 2.4 1.3 0 2.2-.8 2.2-2.4v-3h-1.1v3z"/><path d="m123.8 32.6c-.4-.3-.9-.4-1.6-.4h-1.3v5.2h1.2v-1.9h.2c1.3 0 2.1-.7 2.1-1.7 0-.5-.2-.9-.6-1.2zm-1.5 2h-.2v-1.4h.2c.7 0 1 .2 1 .7 0 .4-.4.7-1 .7z"/><path d="m109.1 15.7c.3.1.5.2.5.3l.1.2.5-.3v-.1c0-.4 0-.9 0-1.4s.1-.9.2-1.1l.1-.2-.2-.1c-.2-.1-.4-.1-.6-.2-.1 0-.3 0-.5 0-1.5 0-2.8 1-4 2.9 0-.2 0-.4 0-.6 0-.4.1-1 .1-1.8v-.3l-.3.1c-.2 0-.5.1-.7.1-.5.1-.8.1-1.2 0-.2 0-.4-.1-.7-.1h-.3v.3c.1 1.4.1 2.7.1 3.7v2.9 1 4.6c0 1.2 0 2.2-.1 2.9v.3h.3c.8-.1 1.7-.1 2.6 0h.3v-.3c-.1-.5-.1-1.1-.1-1.8 0-.8 0-1.8 0-3.3v-3.5c0-.6.1-1.2.2-1.7s.3-1 .6-1.3c.3-.4.6-.7 1-.9.6-.5 1.4-.5 2.1-.3z"/><path d="m99.3 27 .3-1.8-.4-.3-.2.1c-.3.3-.6.6-.9.9-.4.3-.8.5-1.2.7s-.8.4-1.3.5c-1.3.3-2.6.2-3.5-.3-.6-.3-1.2-.7-1.6-1.2s-.8-1.1-1-1.8-.4-1.5-.4-2.3v-.4c0-.1 0-.2 0-.3l1.9-.1c1.8-.1 3.7 0 5.5 0l3.6.1v-.2c0-.2 0-.4 0-.6s0-.4 0-.6c0-.9-.1-1.8-.4-2.6s-.7-1.5-1.3-2.1c-.6-.6-1.3-1.1-2.1-1.5s-1.9-.5-3-.5c-2.4 0-4.3.8-5.6 2.3s-1.9 3.6-1.9 6.3c0 1.1.2 2.1.6 3s.9 1.8 1.6 2.4c.7.7 1.6 1.2 2.5 1.6 1 .4 2 .5 3.2.5 1 0 2.1-.2 3-.6 1.1-.2 2-.7 2.6-1.2zm-9.7-9.3c.2-.6.4-1.2.8-1.7.3-.5.8-.9 1.3-1.3.5-.3 1.1-.5 1.9-.5s1.4.2 1.9.5.9.8 1.1 1.3c.3.5.5 1.1.5 1.7.1.5.1 1.1.1 1.6l-1.9.1c-1.4 0-2.8 0-4.2 0l-1.8-.1c0-.5.1-1.1.3-1.6z"/><path d="m84.8 28.8c.4-.1.8-.2 1.2-.2h.2v-1.2l-.3.1c-.2.1-.4.1-.7.2-.3 0-.5.1-.7.1-.6 0-1-.1-1.3-.4-.3-.2-.5-.6-.7-1s-.3-.9-.3-1.5 0-1.1 0-1.7c0-.7 0-1.5 0-2.4s0-1.7.1-2.6c0-.8 0-1.5.1-2.1 0-.4 0-.7.1-.8h1.4.9.9.3l-.1-.3s0-.1 0-.2v-.7c0-.2 0-.3 0-.3l.1-.3h-.3c-.7 0-1.4.1-2.1.1-.5 0-.8 0-1.1 0 0-.7.1-1.4.1-2.1 0-.8.1-1.6.1-2.4v-.2h-.5l-2.8 1.1v.2c0 .7.1 1.3.1 2v1.4c-.4 0-1 0-1.9-.1h-.3l.1.3v.3.3.3.3.3h.3.6.5.8v3c0 1 0 1.8-.1 2.6 0 .8-.1 1.5-.1 2.2v1.9c0 1.3.3 2.4 1 3.1s1.7 1.1 3.1 1.1c.4-.3.8-.3 1.3-.4z"/><path d="m76.2 27 .2-1.8-.4-.3-.1.1c-.3.3-.6.6-.9.9-.4.3-.7.5-1.2.7-.4.2-.8.4-1.3.5-1.3.3-2.6.2-3.5-.3-.6-.3-1.2-.7-1.6-1.2s-.8-1.1-1-1.8-.4-1.5-.4-2.3v-.4c0-.1 0-.2 0-.3l1.9-.1c1.8-.1 3.7 0 5.5 0l3.6.1v-.2c0-.2 0-.4 0-.6s0-.4 0-.6c0-.9-.1-1.8-.4-2.6s-.7-1.5-1.3-2.1-1.3-1.1-2.1-1.5-1.9-.5-3-.5c-2.4 0-4.3.8-5.6 2.3s-1.9 3.6-1.9 6.3c0 1.1.2 2.1.6 3s.9 1.8 1.6 2.4c.7.7 1.6 1.2 2.5 1.6 1 .4 2 .5 3.2.5 1 0 2.1-.2 3-.6 1.1-.2 1.9-.7 2.6-1.2zm-9.8-9.3c.2-.6.4-1.2.8-1.7.3-.5.8-.9 1.3-1.3.5-.3 1.1-.5 1.9-.5s1.4.2 1.9.5.9.8 1.1 1.3c.3.5.5 1.1.5 1.7.1.5.1 1.1.1 1.6l-1.9.1c-1.4 0-2.8 0-4.2 0l-1.8-.1c0-.5.1-1.1.3-1.6z"/><path d="m62.1 27.4v-2.4l-.4.3c-.2.1-.4.3-.7.5-.4.3-.9.6-1.4.8-.5.3-1.1.5-1.7.7s-1.3.3-2.1.3c-1.2 0-2.4-.2-3.4-.6s-2-1-2.7-1.8c-.8-.8-1.4-1.9-1.8-3.1-.4-1.3-.7-2.8-.7-4.5s.2-3.2.7-4.5c.4-1.2 1-2.3 1.8-3.1s1.7-1.4 2.7-1.8 2.2-.6 3.4-.6c.7 0 1.4.1 2 .3.7.1 1.2.3 1.7.6s.9.6 1.3.9.6.6.9.8l.4.5v-3.7h-.2c-.7-.3-1.4-.5-2.2-.7-1.2-.3-2.5-.4-3.9-.4-1.8 0-3.4.3-4.9.8s-2.8 1.3-3.9 2.3-1.9 2.2-2.5 3.7c-.6 1.4-.9 3.1-.9 4.9s.3 3.5.9 4.9 1.4 2.7 2.5 3.7c1 1 2.3 1.7 3.8 2.2 1.4.5 3 .7 4.7.7.8 0 1.6-.1 2.3-.2s1.4-.3 2-.4c.6-.2 1.1-.3 1.5-.6.3-.2.5-.3.8-.5z"/><path d="m124 27.2c-.4 0-.7 0-.9-.1-.1-.1-.2-.3-.3-.5s-.1-.4-.1-.7 0-.6 0-.8c0-1.3 0-2.6.1-3.8 0-1.2.1-2.4.1-3.6 0-.7-.1-1.4-.4-2s-.6-1.1-1.1-1.6c-.5-.4-1-.8-1.7-1-1.4-.5-3.2-.5-4.7 0-.8.3-1.7.8-2.7 1.5l-.1.1v2h.7l.1-.1c.3-.6.9-1.1 1.5-1.5.7-.4 1.5-.5 2.3-.5.6 0 1.1.1 1.5.3s.8.5 1 .8c.3.3.4.7.6 1.2.1.5.2 1 .2 1.5 0 .3 0 .5-.1.7 0 .1-.2.3-.4.4-.3.1-.8.3-1.4.4s-1.5.3-2.7.5c-1.4.2-2.6.7-3.4 1.5-.8.7-1.3 1.8-1.3 3.1 0 .6.1 1.2.4 1.7s.6.9 1 1.3.9.6 1.4.8 1.1.2 1.6.2c1.1 0 2.1-.2 2.8-.6.7-.3 1.3-.8 2-1.4.1.4.3.8.6 1.1.4.4 1 .6 1.7.6.4 0 .8 0 1.2-.1s.7-.2.9-.3l.1-.1v-1.2l-.3.2s-.1 0-.2 0zm-4.2-2c-.3.5-.8 1-1.4 1.4s-1.3.6-2.1.6c-.6 0-1.2-.2-1.8-.7-.5-.5-.8-1.2-.8-2.1 0-.6.1-1 .3-1.4s.5-.6.8-.9c.3-.2.8-.4 1.2-.6.5-.1.9-.3 1.4-.4s1-.2 1.4-.3.7-.1 1-.2z"/><path d="m125.3 13c-1 0-1.9.8-1.9 1.9s.8 1.9 1.9 1.9c1 0 1.9-.8 1.9-1.9 0-1-.8-1.9-1.9-1.9zm0 3.5c-.9 0-1.5-.7-1.5-1.5 0-.9.7-1.5 1.5-1.5.9 0 1.5.7 1.5 1.5.1.8-.6 1.5-1.5 1.5z"/><path d="m126.1 14.3c0-.5-.5-.5-1.1-.5-.2 0-.4 0-.5 0v1 1.1h.2.2c0-.5 0-.7 0-1h.1c.2.2.5.5.8 1h.3.2c-.1-.1-.8-.9-.9-1 .3-.1.7-.1.7-.6zm-1.1.4c0-.3 0-.5 0-.8.3 0 .8 0 .8.4-.1.4-.6.4-.8.4z"/></g></svg>